<svg width="214" height="219" viewBox="0 0 214 219" fill="none" xmlns="http://www.w3.org/2000/svg">
<path d="M99.4931 13.9549L15.8262 31.6385C7.68161 33.3599 2.47458 41.3579 4.196 49.5025L21.8795 133.169C23.601 141.314 31.5989 146.521 39.7435 144.8L123.41 127.116C131.555 125.395 136.762 117.397 135.041 109.252L117.357 25.5851C115.636 17.4405 107.638 12.2335 99.4931 13.9549Z" fill="#EEF2F5" stroke="#626262"/>
<path d="M99.4931 13.9549L15.8262 31.6385C7.68161 33.3599 2.47458 41.3579 4.196 49.5025L21.8795 133.169C23.601 141.314 31.5989 146.521 39.7435 144.8L123.41 127.116C131.555 125.395 136.762 117.397 135.041 109.252L117.357 25.5851C115.636 17.4405 107.638 12.2335 99.4931 13.9549Z" fill="#EEF2F5" stroke="#626262"/>
<path d="M160.713 12.5767H75.1979C66.8734 12.5767 60.125 19.325 60.125 27.6496V113.165C60.125 121.489 66.8734 128.238 75.1979 128.238H160.713C169.038 128.238 175.786 121.489 175.786 113.165V27.6496C175.786 19.325 169.038 12.5767 160.713 12.5767Z" fill="#EEF2F5" stroke="#626262"/>
<path d="M160.713 12.5767H75.1979C66.8734 12.5767 60.125 19.325 60.125 27.6496V113.165C60.125 121.489 66.8734 128.238 75.1979 128.238H160.713C169.038 128.238 175.786 121.489 175.786 113.165V27.6496C175.786 19.325 169.038 12.5767 160.713 12.5767Z" fill="#EEF2F5" stroke="#626262"/>
<path d="M197.937 6.26535L112.539 1.78983C104.226 1.35416 97.1336 7.7401 96.698 16.0532L92.2224 101.451C91.7868 109.764 98.1727 116.857 106.486 117.292L191.884 121.768C200.197 122.204 207.289 115.818 207.725 107.504L212.2 22.1064C212.636 13.7933 206.25 6.70102 197.937 6.26535Z" fill="#EEF2F5" stroke="#626262"/>
<path d="M197.937 6.26535L112.539 1.78983C104.226 1.35416 97.1336 7.7401 96.698 16.0532L92.2224 101.451C91.7868 109.764 98.1727 116.857 106.486 117.292L191.884 121.768C200.197 122.204 207.289 115.818 207.725 107.504L212.2 22.1064C212.636 13.7933 206.25 6.70102 197.937 6.26535Z" fill="#EEF2F5" stroke="#626262"/>
<mask id="mask0_1_699" style="mask-type:luminance" maskUnits="userSpaceOnUse" x="53" y="94" width="108" height="125">
<path d="M160.48 94.5244H53.5195V218.204H160.48V94.5244Z" fill="white" stroke="white"/>
</mask>
<g mask="url(#mask0_1_699)">
<path d="M152.49 156.654L146.14 195.294L145.87 196.924C145.87 196.924 145.87 196.854 145.86 196.824C145.83 197.104 145.8 197.384 145.75 197.664C144.93 202.854 141.21 207.354 134.6 211.164C129.4 214.164 123.48 216.124 116.82 217.064H116.78C113.72 217.504 110.5 217.714 107.13 217.704C103.67 217.694 100.37 217.464 97.2398 217.004C90.6398 216.034 84.7498 214.054 79.5798 211.064C73.0098 207.274 69.2598 202.824 68.3198 197.714L68.1798 196.874V196.794C68.1598 196.704 68.1498 196.614 68.1398 196.514V196.574L67.8798 194.984L61.5098 156.334C63.7398 158.484 66.4598 160.494 69.6798 162.344C74.8698 165.354 80.7398 167.604 87.2598 169.114C88.0498 169.294 88.8498 169.474 89.6298 169.624C95.3898 170.784 101.24 171.374 107.16 171.384C112.99 171.404 118.74 170.854 124.39 169.734C125.28 169.574 126.16 169.384 127.05 169.184C133.56 167.704 139.4 165.474 144.56 162.484C147.67 160.684 150.32 158.744 152.49 156.654Z" fill="#EEF2F5" stroke="#626262"/>
<path d="M156.03 114.214C153.42 110.454 149.52 107.064 144.32 104.074C139.13 101.064 133.26 98.8144 126.73 97.3044C120.21 95.7944 113.57 95.0444 106.84 95.0244C100.1 95.0244 93.47 95.7544 86.95 97.2344C80.44 98.7144 74.6 100.944 69.44 103.934C64.28 106.914 60.41 110.284 57.84 114.044C55.27 117.804 53.99 121.624 54.02 125.524C54.02 128.064 54.6 130.594 55.72 133.084C55.87 133.424 56.04 133.764 56.21 134.104C56.41 134.484 56.61 134.854 56.84 135.224C56.99 135.504 57.16 135.784 57.34 136.064C57.42 136.194 57.51 136.334 57.6 136.464C57.72 136.644 57.84 136.834 57.97 137.014C58.2 137.344 58.44 137.674 58.69 137.994C58.94 138.324 59.2 138.644 59.47 138.964C59.56 139.084 59.67 139.204 59.78 139.324C59.95 139.524 60.13 139.724 60.31 139.914C60.52 140.144 60.73 140.364 60.95 140.594C61.25 140.904 61.57 141.204 61.89 141.504C62.2 141.794 62.51 142.084 62.84 142.364C63.1 142.594 63.37 142.814 63.64 143.034C63.88 143.234 64.13 143.434 64.38 143.624C64.64 143.834 64.9 144.024 65.17 144.224C65.72 144.634 66.3 145.044 66.89 145.434C67.12 145.594 67.35 145.744 67.59 145.894C68.26 146.324 68.96 146.744 69.68 147.164C74.87 150.164 80.74 152.414 87.26 153.924C88.05 154.114 88.85 154.284 89.63 154.444C95.39 155.604 101.24 156.194 107.16 156.204C112.99 156.214 118.74 155.664 124.39 154.554C125.28 154.384 126.16 154.194 127.05 153.994C133.56 152.514 139.4 150.284 144.56 147.304C145.46 146.784 146.33 146.244 147.15 145.694C147.39 145.544 147.62 145.384 147.85 145.224C148.2 144.984 148.53 144.754 148.86 144.504C149.19 144.264 149.51 144.024 149.82 143.784C150.14 143.534 150.45 143.284 150.75 143.024C150.89 142.914 151.03 142.794 151.17 142.664C151.31 142.554 151.45 142.434 151.58 142.304C151.86 142.064 152.13 141.814 152.4 141.554C152.59 141.384 152.78 141.194 152.96 141.004C153.5 140.474 154 139.934 154.47 139.384C154.59 139.254 154.7 139.114 154.8 138.984C155.29 138.394 155.74 137.794 156.16 137.184C156.4 136.834 156.63 136.474 156.85 136.114C157.05 135.794 157.24 135.474 157.42 135.144C157.55 134.924 157.67 134.694 157.79 134.464C157.96 134.124 158.12 133.794 158.27 133.454C159.41 130.934 159.98 128.374 159.98 125.794V125.714C159.95 121.814 158.64 117.994 156.03 114.214ZM152.75 125.694C152.75 126.764 152.66 127.814 152.48 128.844C152.07 131.054 151.21 133.154 149.9 135.154C149.64 135.544 149.37 135.924 149.08 136.304C147.91 137.844 146.45 139.324 144.72 140.734C143.18 141.994 141.41 143.184 139.43 144.344C136.34 146.134 133.03 147.604 129.49 148.764C122.83 150.954 115.38 152.044 107.13 152.024C98.81 152.024 91.27 150.874 84.52 148.594C81.06 147.444 77.81 145.984 74.76 144.224C72.7 143.024 70.87 141.784 69.28 140.464C67.55 139.044 66.1 137.564 64.93 136.014C64.63 135.634 64.36 135.244 64.1 134.844C62.79 132.844 61.93 130.724 61.53 128.504C61.35 127.524 61.26 126.534 61.25 125.524V125.304C61.3 118.114 65.74 111.994 74.57 106.894C75.36 106.424 76.17 105.994 76.99 105.584C85.41 101.304 95.38 99.1744 106.85 99.2044C118.43 99.2244 128.47 101.424 136.98 105.794C137.74 106.174 138.49 106.594 139.22 107.014C148.18 112.184 152.68 118.384 152.75 125.644V125.694Z" fill="#EEF2F5" stroke="#626262"/>
<path d="M152.75 125.644V125.694C152.75 126.764 152.66 127.814 152.48 128.844C152.07 131.054 151.21 133.154 149.9 135.154C149.64 135.544 149.37 135.924 149.08 136.304C146.83 133.154 143.52 130.304 139.15 127.784C134.67 125.194 129.62 123.254 124 121.954C118.38 120.664 112.66 120.004 106.86 119.994C101.06 119.984 95.35 120.614 89.74 121.894C84.13 123.174 79.1 125.094 74.66 127.664C70.38 130.134 67.13 132.914 64.93 136.014C64.63 135.634 64.36 135.244 64.1 134.844C62.79 132.844 61.93 130.724 61.53 128.504C61.35 127.524 61.26 126.534 61.25 125.524V125.304C61.3 118.114 65.74 111.994 74.57 106.894C75.36 106.424 76.17 105.994 76.99 105.584C85.41 101.304 95.38 99.1744 106.85 99.2044C118.43 99.2244 128.47 101.424 136.98 105.794C137.74 106.174 138.49 106.594 139.22 107.014C148.18 112.184 152.68 118.384 152.75 125.644Z" fill="#EEF2F5" stroke="#626262"/>
<path d="M149.08 136.304C147.91 137.844 146.45 139.324 144.72 140.734C143.18 141.994 141.41 143.184 139.43 144.344C136.34 146.134 133.03 147.604 129.49 148.764C122.83 150.954 115.38 152.044 107.13 152.024C98.8097 152.024 91.2697 150.874 84.5197 148.594C81.0597 147.444 77.8097 145.984 74.7597 144.224C72.6997 143.024 70.8697 141.784 69.2797 140.464C67.5497 139.044 66.0997 137.564 64.9297 136.014C67.1297 132.914 70.3797 130.134 74.6597 127.664C79.0997 125.094 84.1297 123.174 89.7397 121.894C95.3497 120.614 101.06 119.984 106.86 119.994C112.66 120.004 118.38 120.664 124 121.954C129.62 123.254 134.67 125.194 139.15 127.784C143.52 130.304 146.83 133.154 149.08 136.304Z" fill="#EEF2F5" stroke="#626262"/>
<path d="M159.98 125.794V141.084C159.98 144.014 159.25 146.904 157.79 149.764C157.32 150.674 156.77 151.584 156.16 152.484C155.14 153.974 153.92 155.404 152.49 156.764C150.32 158.854 147.67 160.794 144.56 162.594C139.4 165.584 133.56 167.814 127.05 169.294C126.16 169.494 125.28 169.684 124.39 169.844C118.74 170.964 112.99 171.514 107.16 171.494C101.24 171.484 95.3895 170.894 89.6295 169.734C88.8495 169.584 88.0495 169.404 87.2595 169.224C80.7395 167.714 74.8695 165.464 69.6795 162.454C66.4595 160.604 63.7395 158.594 61.5095 156.444C60.1395 155.124 58.9595 153.744 57.9695 152.314C57.2995 151.344 56.7195 150.374 56.2095 149.404C54.7695 146.574 54.0295 143.714 54.0195 140.814V125.524C54.0195 128.064 54.5995 130.594 55.7195 133.084C55.8695 133.424 56.0395 133.764 56.2095 134.104C56.4095 134.484 56.6095 134.854 56.8395 135.224C56.9895 135.504 57.1595 135.784 57.3395 136.064C57.4195 136.194 57.5095 136.334 57.5995 136.464C57.7195 136.644 57.8395 136.834 57.9695 137.014C58.1995 137.344 58.4395 137.674 58.6895 137.994C58.9295 138.324 59.1895 138.644 59.4695 138.964C59.5595 139.084 59.6695 139.204 59.7795 139.324C59.9495 139.524 60.1295 139.724 60.3095 139.914C60.5095 140.144 60.7295 140.364 60.9495 140.594C61.2495 140.904 61.5695 141.204 61.8895 141.504C62.1995 141.794 62.5095 142.084 62.8395 142.364C63.0995 142.594 63.3695 142.814 63.6395 143.034C63.8795 143.234 64.1295 143.434 64.3795 143.624C64.6395 143.834 64.8995 144.024 65.1695 144.224C65.7195 144.634 66.2995 145.044 66.8895 145.434C67.1195 145.594 67.3495 145.744 67.5895 145.894C68.2595 146.324 68.9595 146.744 69.6795 147.164C74.8695 150.164 80.7395 152.414 87.2595 153.924C88.0495 154.114 88.8495 154.284 89.6295 154.444C95.3895 155.604 101.24 156.194 107.16 156.204C112.99 156.204 118.74 155.664 124.39 154.554C125.28 154.384 126.16 154.194 127.05 153.994C133.56 152.514 139.4 150.284 144.56 147.304C145.46 146.784 146.33 146.244 147.15 145.694C147.39 145.544 147.62 145.384 147.85 145.224C148.2 144.984 148.53 144.754 148.86 144.504C149.19 144.264 149.51 144.024 149.82 143.784C150.14 143.534 150.45 143.284 150.75 143.024C150.89 142.914 151.03 142.794 151.17 142.664C151.31 142.554 151.45 142.434 151.58 142.304C151.86 142.064 152.13 141.814 152.4 141.554C152.59 141.384 152.78 141.194 152.96 141.004C153.5 140.474 154 139.934 154.47 139.384C154.59 139.254 154.7 139.114 154.8 138.984C155.29 138.394 155.74 137.794 156.16 137.184C156.4 136.834 156.63 136.474 156.85 136.114C157.05 135.794 157.24 135.474 157.42 135.144C157.55 134.924 157.67 134.694 157.79 134.464C157.96 134.124 158.12 133.794 158.27 133.454C159.41 130.934 159.98 128.374 159.98 125.794Z" fill="#EEF2F5" stroke="#626262"/>
</g>
</svg>
