<svg width="49" height="39" viewBox="0 0 49 39" fill="none" xmlns="http://www.w3.org/2000/svg">
<ellipse cx="9.10656" cy="19.8689" rx="9.10656" ry="19.041" fill="#C7C6DC"/>
<path d="M17.7993 24.0084C17.7993 30.4094 14.5933 38.91 9.10669 38.91C3.62005 38.91 0.414062 30.4094 0.414062 24.0084C0.414062 17.6073 4.44792 12.4182 9.93456 12.4182C15.4212 12.4182 17.7993 17.6073 17.7993 24.0084Z" fill="#101228"/>
<path d="M14.9018 23.1287C14.9018 21.7285 14.2911 19.869 13.2461 19.869C12.201 19.869 11.5903 21.7285 11.5903 23.1287C11.5903 24.5289 12.3587 25.6641 13.4038 25.6641C14.4488 25.6641 14.9018 24.5289 14.9018 23.1287Z" fill="white"/>
<path d="M12.4182 22.7665C12.4182 21.3663 14.5592 19.869 13.2461 19.869C12.201 19.869 11.5903 21.7285 11.5903 23.1287C11.5903 24.5289 12.3587 25.6641 13.4038 25.6641C14.4488 25.6641 12.4182 24.1668 12.4182 22.7665Z" fill="#D1D1D1"/>
<ellipse cx="38.9098" cy="19.041" rx="9.10656" ry="19.041" fill="#C7C6DC"/>
<path d="M47.6025 23.1805C47.6025 29.5816 44.3965 38.0821 38.9099 38.0821C33.4233 38.0821 30.2173 29.5816 30.2173 23.1805C30.2173 16.7794 34.2511 11.5903 39.7378 11.5903C45.2244 11.5903 47.6025 16.7794 47.6025 23.1805Z" fill="#101228"/>
<path d="M45.5327 23.1287C45.5327 21.7285 44.922 19.869 43.8769 19.869C42.8319 19.869 42.2212 21.7285 42.2212 23.1287C42.2212 24.5289 42.9895 25.6641 44.0346 25.6641C45.0797 25.6641 45.5327 24.5289 45.5327 23.1287Z" fill="white"/>
<path d="M43.0491 22.7665C43.0491 21.3663 45.19 19.869 43.8769 19.869C42.8319 19.869 42.2212 21.7285 42.2212 23.1287C42.2212 24.5289 42.9895 25.6641 44.0346 25.6641C45.0797 25.6641 43.0491 24.1668 43.0491 22.7665Z" fill="#D1D1D1"/>
</svg>
